<svg width="15" height="16" viewBox="0 0 15 16" fill="none" xmlns="http://www.w3.org/2000/svg">
<path d="M0.158822 15.5161C0.0479235 15.3976 -0.00490418 15.2608 0.000337956 15.1056C0.00558009 14.9504 0.0675109 14.8178 0.186127 14.7078L3.73735 11.384L7.28858 8.06007L0.650312 0.967769C0.539414 0.849286 0.486847 0.712732 0.49261 0.558106C0.498373 0.40348 0.560321 0.270361 0.678453 0.158748C0.796585 0.0471345 0.933227 -0.00562224 1.08838 0.00047591C1.24353 0.00657406 1.37604 0.0683089 1.48589 0.185679L8.27411 7.43818C8.45269 7.62898 8.53801 7.84966 8.53009 8.10023C8.52216 8.35081 8.42213 8.56549 8.22998 8.7443L0.967099 15.5422C0.848447 15.6533 0.711803 15.706 0.557171 15.7005C0.402539 15.695 0.269495 15.6332 0.15804 15.5152M6.60755 15.7401C6.49717 15.6221 6.44488 15.4853 6.45068 15.3296C6.45648 15.1739 6.51813 15.0416 6.63563 14.9327L13.7381 8.2849L7.09982 1.1926C6.98892 1.07412 6.93635 0.937567 6.94212 0.782941C6.94788 0.628315 7.00955 0.495457 7.12712 0.384365C7.2447 0.273273 7.38134 0.220516 7.53705 0.226093C7.69276 0.23167 7.82554 0.293144 7.9354 0.410514L14.7236 7.66302C14.9027 7.85437 14.9878 8.07531 14.9788 8.32585C14.9698 8.57639 14.87 8.79081 14.6795 8.96913L7.41661 15.7671C7.29795 15.8781 7.16131 15.9309 7.00668 15.9253C6.85205 15.9198 6.719 15.858 6.60755 15.7401Z" fill="#F5F4F5"/>
</svg>
