<svg width="42" height="41" viewBox="0 0 42 41" fill="none" xmlns="http://www.w3.org/2000/svg">
<path d="M20.8333 0C9.32292 0 7.74574e-06 9.32292 7.74574e-06 20.8333C-0.00376442 25.2069 1.37033 29.4705 3.9272 33.0187C6.48407 36.567 10.0938 39.2196 14.2438 40.6C15.2854 40.7812 15.6771 40.1562 15.6771 39.6083C15.6771 39.1146 15.65 37.475 15.65 35.7292C10.4167 36.6937 9.06251 34.4542 8.64584 33.2812C8.41042 32.6812 7.39584 30.8333 6.51042 30.3375C5.78126 29.9479 4.73959 28.9833 6.48334 28.9583C8.12501 28.9312 9.29584 30.4687 9.68751 31.0937C11.5625 34.2437 14.5563 33.3583 15.7542 32.8125C15.9375 31.4583 16.4833 30.5479 17.0833 30.0271C12.4479 29.5062 7.60417 27.7083 7.60417 19.7396C7.60417 17.4729 8.41042 15.6 9.73959 14.1417C9.53126 13.6208 8.80209 11.4854 9.94792 8.62083C9.94792 8.62083 11.6917 8.07292 15.6771 10.7542C17.3733 10.2847 19.1255 10.0485 20.8854 10.0521C22.6563 10.0521 24.4271 10.2854 26.0938 10.7542C30.0792 8.04583 31.8229 8.62083 31.8229 8.62083C32.9688 11.4854 32.2396 13.6208 32.0313 14.1417C33.3583 15.6 34.1667 17.4479 34.1667 19.7396C34.1667 27.7354 29.2979 29.5062 24.6625 30.0271C25.4167 30.6771 26.0688 31.9271 26.0688 33.8812C26.0688 36.6667 26.0417 38.9062 26.0417 39.6104C26.0417 40.1562 26.4333 40.8062 27.475 40.5979C31.6094 39.2002 35.2018 36.5419 37.747 32.9966C40.2922 29.4514 41.6623 25.1976 41.6646 20.8333C41.6646 9.32292 32.3417 0 20.8313 0" fill="white"/>
</svg>
