<svg width="38" height="38" viewBox="0 0 38 38" fill="none" xmlns="http://www.w3.org/2000/svg">
<path d="M33.3333 0C34.4384 0 35.4982 0.438987 36.2796 1.22039C37.061 2.00179 37.5 3.0616 37.5 4.16667V33.3333C37.5 34.4384 37.061 35.4982 36.2796 36.2796C35.4982 37.061 34.4384 37.5 33.3333 37.5H4.16667C3.0616 37.5 2.00179 37.061 1.22039 36.2796C0.438987 35.4982 0 34.4384 0 33.3333V4.16667C0 3.0616 0.438987 2.00179 1.22039 1.22039C2.00179 0.438987 3.0616 0 4.16667 0H33.3333ZM32.2917 32.2917V21.25C32.2917 19.4487 31.5761 17.7213 30.3024 16.4476C29.0287 15.1739 27.3013 14.4583 25.5 14.4583C23.7292 14.4583 21.6667 15.5417 20.6667 17.1667V14.8542H14.8542V32.2917H20.6667V22.0208C20.6667 20.4167 21.9583 19.1042 23.5625 19.1042C24.336 19.1042 25.0779 19.4115 25.6249 19.9584C26.1719 20.5054 26.4792 21.2473 26.4792 22.0208V32.2917H32.2917ZM8.08333 11.5833C9.01159 11.5833 9.90183 11.2146 10.5582 10.5582C11.2146 9.90183 11.5833 9.01159 11.5833 8.08333C11.5833 6.14583 10.0208 4.5625 8.08333 4.5625C7.14955 4.5625 6.25401 4.93344 5.59373 5.59373C4.93344 6.25401 4.5625 7.14955 4.5625 8.08333C4.5625 10.0208 6.14583 11.5833 8.08333 11.5833ZM10.9792 32.2917V14.8542H5.20833V32.2917H10.9792Z" fill="white"/>
</svg>
