<?xml version="1.0" encoding="UTF-8"?>
<svg id="Calque_2" data-name="Calque 2" xmlns="http://www.w3.org/2000/svg" viewBox="0 0 63.43 80">
  <defs>
    <style>
      .cls-1 {
        fill: #fff;
      }

      .cls-2 {
        fill: #1d1d1b;
      }
    </style>
  </defs>
  <g id="logo">
    <g>
      <g>
        <path class="cls-2" d="M27.23,80c-8.55,0-15.22-1.95-20.03-5.84-4.8-3.9-7.21-9.4-7.21-16.51,0-5.45,1.55-9.87,4.65-13.28,3.1-3.4,7.45-5.52,13.05-6.35v1.7c-4.84-1.13-8.66-3.37-11.46-6.69-2.8-3.33-4.2-7.41-4.2-12.26,0-4.31,1.04-8.02,3.12-11.12,2.08-3.1,5.09-5.48,9.02-7.15,3.93-1.66,8.7-2.5,14.3-2.5h27.23c2.5,0,4.41.66,5.73,1.99,1.32,1.32,1.99,3.23,1.99,5.73v64.57c0,2.5-.66,4.41-1.99,5.73-1.32,1.32-3.23,1.99-5.73,1.99h-28.48ZM49.48,44.94h-20.43c-5.14,0-8.93.98-11.35,2.95-2.42,1.97-3.63,4.99-3.63,9.08s1.21,7.02,3.63,9.02c2.42,2.01,6.2,3.01,11.35,3.01h20.43v-24.06ZM49.48,11.01h-18.5c-4.99,0-8.72.96-11.18,2.89-2.46,1.93-3.69,4.79-3.69,8.57s1.23,6.64,3.69,8.57c2.46,1.93,6.18,2.89,11.18,2.89h18.5V11.01Z"/>
        <g>
          <rect class="cls-2" x="13.48" y="7.8" width="39.32" height="26.9"/>
          <rect class="cls-2" x="13.48" y="44.53" width="39.32" height="26.9"/>
        </g>
      </g>
      <path class="cls-1" d="M28.93,32.98h17.01c10.08,0,15.13,3.97,15.13,11.9,0,3.93-1.73,7.2-5.18,9.81,5.01,2.17,7.51,6.05,7.51,11.63,0,4.28-1.47,7.68-4.42,10.22-1.44,1.21-2.98,2.06-4.63,2.54s-3.86.72-6.65.72h-2.64v-12.04h2.37c1.39,0,2.38-.18,2.95-.53.57-.35.86-.98.86-1.87,0-1.51-1.17-2.26-3.5-2.26h-2.68v-12.49c2.56,0,3.84-.88,3.84-2.64,0-1.62-1.15-2.44-3.46-2.44h-2.57v34.27h-13.93v-46.82Z"/>
    </g>
  </g>
</svg>