<svg width="20" height="20" viewBox="0 0 20 20" fill="none" xmlns="http://www.w3.org/2000/svg">
<g clip-path="url(#clip0_139_288)">
<path d="M0 0V16.8C0 17.6487 0.337142 18.4626 0.937258 19.0627C1.53737 19.6629 2.35131 20 3.2 20H16.8C17.6487 20 18.4626 19.6629 19.0627 19.0627C19.6629 18.4626 20 17.6487 20 16.8V3.2C20 2.35131 19.6629 1.53737 19.0627 0.937258C18.4626 0.337142 17.6487 0 16.8 0L0 0ZM11.88 10.9C13.18 10.9 13.78 11.8 13.8 13.1H12.46C12.48 12.86 12.42 12.6 12.34 12.4C12.26 12.24 12.1 12.18 11.88 12.18C11.5 12.18 11.3 12.4 11.3 12.88C11.28 13.36 11.54 13.62 11.94 13.78C12.54 14.02 13.28 14.4 13.54 14.86C13.78 15.22 13.9 15.68 13.9 16.24C13.9 17.58 13.14 18.4 11.82 18.4C10.44 18.4 9.82 17.54 9.8 16.16H11.2C11.2 16.82 11.42 17.14 11.86 17.14C12.08 17.14 12.24 17.08 12.32 16.94C12.48 16.68 12.52 15.96 12.28 15.68C12.02 15.34 11.52 15.18 11.18 15C10.72 14.78 10.38 14.52 10.16 14.22C9.96 13.92 9.86 13.48 9.86 12.94C9.86 11.74 10.64 10.88 11.88 10.9ZM16.38 10.9C17.7 10.9 18.3 11.8 18.32 13.1H16.98C16.98 12.86 16.94 12.6 16.84 12.4C16.76 12.24 16.62 12.18 16.4 12.18C16 12.18 15.8 12.4 15.8 12.88C15.8 13.36 16.04 13.62 16.46 13.78C17.04 14.02 17.8 14.4 18.06 14.86C18.28 15.22 18.4 15.68 18.4 16.24C18.42 17.58 17.66 18.4 16.34 18.4C14.94 18.4 14.32 17.52 14.3 16.16H15.7C15.7 16.78 15.92 17.14 16.36 17.14C16.58 17.14 16.74 17.08 16.82 16.94C17 16.68 17.04 15.96 16.78 15.68C16.54 15.34 16.04 15.18 15.68 15C15.22 14.78 14.88 14.52 14.68 14.22C14.48 13.92 14.38 13.48 14.38 12.94C14.36 11.74 15.14 10.88 16.38 10.9ZM7.1875 10.915C7.78 10.91 8.37 11.08 8.72 11.44C9.08 11.8 9.28 12.38 9.26 13.1H7.78C7.8 12.72 7.7 12.44 7.42 12.3C7.16 12.18 6.78 12.26 6.68 12.5C6.58 12.72 6.52 12.98 6.54 13.22V16.14C6.54 16.76 6.76 17.08 7.18 17.08C7.26884 17.0839 7.35728 17.0659 7.43751 17.0275C7.51773 16.9891 7.58728 16.9316 7.64 16.86C7.78 16.66 7.8 16.4 7.78 16.16H9.26C9.34 17.52 8.44 18.42 7.12 18.4C5.84 18.4 5.04 17.68 5.06 16.34V12.98C5.06 12.3 5.26 11.78 5.64 11.44C6 11.1 6.595 10.92 7.1875 10.915Z" fill="black"/>
</g>
<defs>
<clipPath id="clip0_139_288">
<rect width="20" height="20" fill="white"/>
</clipPath>
</defs>
</svg>
