<svg width="20" height="20" viewBox="0 0 20 20" fill="none" xmlns="http://www.w3.org/2000/svg">
<path d="M13.1499 4.26083C11.7415 2.85417 10.3999 1.5125 9.9982 0C9.5982 1.5125 8.25654 2.85417 6.84987 4.26083C4.7382 6.36917 2.3457 8.76083 2.3457 12.3458C2.3457 14.3758 3.15203 16.3227 4.58731 17.7581C6.02259 19.1936 7.96925 20 9.99904 20C12.0288 20 13.9755 19.1936 15.4108 17.7581C16.846 16.3227 17.6524 14.3758 17.6524 12.3458C17.6524 8.76 15.2599 6.37 13.1482 4.26083M5.59987 14.1283C5.1307 14.1125 3.39987 11.1283 6.61237 7.94833L8.73737 10.2717C8.75562 10.2896 8.76986 10.3112 8.77917 10.3351C8.78848 10.3589 8.79264 10.3845 8.79138 10.4101C8.79012 10.4356 8.78347 10.4607 8.77186 10.4835C8.76026 10.5063 8.74396 10.5264 8.72404 10.5425C8.2157 11.0633 6.05404 13.2317 5.78487 13.9808C5.72987 14.1358 5.6482 14.1308 5.59987 14.1283ZM9.99987 18.0642C9.6542 18.0642 9.31192 17.9961 8.99258 17.8638C8.67324 17.7315 8.38309 17.5375 8.13871 17.2931C7.89432 17.0486 7.70049 16.7584 7.56829 16.439C7.43608 16.1196 7.36809 15.7773 7.3682 15.4317C7.37771 14.7933 7.60965 14.1782 8.02404 13.6925C8.49904 13.1125 9.99904 11.48 9.99904 11.48C9.99904 11.48 11.4774 13.1367 11.9715 13.6875C12.4017 14.166 12.6372 14.7882 12.6315 15.4317C12.6316 15.7773 12.5637 16.1196 12.4315 16.439C12.2992 16.7584 12.1054 17.0486 11.861 17.2931C11.6166 17.5375 11.3265 17.7315 11.0072 17.8638C10.6878 17.9961 10.3455 18.0642 9.99987 18.0642ZM15.0382 13.795C14.9815 13.92 14.8524 14.1267 14.679 14.1325C14.3699 14.1442 14.3365 13.985 14.1074 13.6467C13.604 12.9033 9.2207 8.32167 8.4007 7.43417C7.67904 6.655 8.29904 6.105 8.58654 5.8175C8.94654 5.45583 9.99987 4.40417 9.99987 4.40417C9.99987 4.40417 13.1382 7.3825 14.4465 9.4175C15.7549 11.4533 15.304 13.2142 15.0382 13.795Z" fill="black"/>
</svg>
