<svg width="20" height="20" viewBox="0 0 20 20" fill="none" xmlns="http://www.w3.org/2000/svg">
<path d="M13.2099 7.48417H9.38653V0H13.2099C15.2732 0 16.9515 1.67833 16.9515 3.74167C16.9515 5.805 15.2732 7.48417 13.2099 7.48417ZM10.6124 6.25833H13.2099C14.5974 6.25833 15.7257 5.12917 15.7257 3.7425C15.7257 2.35583 14.5965 1.22667 13.2099 1.22667H10.6124V6.25833ZM10.6124 7.48417H6.78986C4.72653 7.48417 3.0482 5.80583 3.0482 3.7425C3.0482 1.67917 4.72653 0 6.78986 0H10.6132V7.48417H10.6124ZM6.78986 1.22583C5.40236 1.22583 4.27403 2.355 4.27403 3.74167C4.27403 5.12833 5.40236 6.25833 6.78986 6.25833H9.38736V1.22583H6.78986ZM10.6124 13.7417H6.78986C4.72653 13.7417 3.0482 12.0633 3.0482 10C3.0482 7.93667 4.72653 6.25833 6.78986 6.25833H10.6132V13.7417H10.6124ZM6.78986 7.48417C5.40236 7.48417 4.27403 8.61333 4.27403 10C4.27403 11.3867 5.4032 12.5158 6.78986 12.5158H9.38736V7.48417H6.78986ZM6.80986 20C4.7357 20 3.04736 18.3217 3.04736 16.2583C3.04736 14.195 4.7257 12.5167 6.78903 12.5167H10.6124V16.2175C10.6124 18.3033 8.90653 20 6.80986 20ZM6.78986 13.7417C6.12289 13.7425 5.48349 14.0079 5.01187 14.4795C4.54026 14.9511 4.27491 15.5905 4.27403 16.2575C4.27403 17.645 5.41153 18.7733 6.8107 18.7733C8.23153 18.7733 9.3882 17.6267 9.3882 16.2167V13.7417H6.78986ZM13.2099 13.7417H13.1282C11.0649 13.7417 9.38653 12.0633 9.38653 10C9.38653 7.93667 11.0649 6.25833 13.1282 6.25833H13.2099C15.2732 6.25833 16.9515 7.93667 16.9515 10C16.9515 12.0633 15.2732 13.7417 13.2099 13.7417ZM13.129 7.48417C11.7415 7.48417 10.6132 8.61333 10.6132 10C10.6132 11.3867 11.7424 12.5158 13.129 12.5158H13.2107C14.5982 12.5158 15.7265 11.3867 15.7265 10C15.7265 8.61333 14.5965 7.48417 13.2099 7.48417H13.129Z" fill="black"/>
</svg>
