<svg width="20" height="20" viewBox="0 0 20 20" fill="none" xmlns="http://www.w3.org/2000/svg">
<path d="M5.84167 8.50582H5.055L4.62583 10.7125H5.32417C5.7875 10.7125 6.1325 10.625 6.35917 10.4508C6.58583 10.2758 6.73833 9.98499 6.8175 9.57666C6.89417 9.18499 6.85917 8.90832 6.71417 8.74749C6.56833 8.58666 6.27833 8.50582 5.84167 8.50582ZM10 4.73999C4.4775 4.73999 0 7.09499 0 9.99999C0 12.905 4.4775 15.2608 10 15.2608C15.5225 15.2608 20 12.905 20 9.99999C20 7.09499 15.5225 4.73999 10 4.73999ZM7.28333 10.9492C7.06583 11.1575 6.80417 11.3142 6.51917 11.4083C6.23917 11.4983 5.88167 11.545 5.44833 11.545H4.46417L4.19167 12.9458H3.04333L4.06833 7.67416H6.27667C6.94083 7.67416 7.425 7.84832 7.73 8.19749C8.035 8.54582 8.12667 9.03249 8.005 9.65749C7.9584 9.9048 7.8726 10.1431 7.75083 10.3633C7.63167 10.5758 7.47583 10.7717 7.28333 10.9492ZM10.6367 11.545L11.0892 9.21249C11.1417 8.94749 11.1217 8.76582 11.0325 8.66999C10.9433 8.57332 10.7525 8.52499 10.46 8.52499H9.55L8.96333 11.5458H7.82333L8.84833 6.27332H9.9875L9.715 7.67499H10.73C11.3692 7.67499 11.8092 7.78666 12.0517 8.00916C12.2942 8.23166 12.3667 8.59249 12.2708 9.09166L11.7942 11.545H10.6367ZM16.9675 9.65749C16.9217 9.90501 16.8358 10.1434 16.7133 10.3633C16.5942 10.5758 16.4383 10.7717 16.2458 10.9492C16.0282 11.1569 15.7672 11.3137 15.4817 11.4083C15.2017 11.4983 14.8442 11.545 14.41 11.545H13.4267L13.1542 12.9467H12.0058L13.0308 7.67499H15.2383C15.9025 7.67499 16.3867 7.84916 16.6917 8.19832C16.9967 8.54582 17.0892 9.03249 16.9675 9.65749ZM14.805 8.50582H14.0192L13.5892 10.7125H14.2875C14.7517 10.7125 15.0967 10.625 15.3225 10.4508C15.5492 10.2758 15.7017 9.98499 15.7817 9.57666C15.8583 9.18499 15.8225 8.90832 15.6775 8.74749C15.5325 8.58666 15.2408 8.50582 14.805 8.50582Z" fill="black"/>
</svg>
