<svg width="20" height="20" viewBox="0 0 20 20" fill="none" xmlns="http://www.w3.org/2000/svg">
<g clip-path="url(#clip0_139_297)">
<path d="M10 0C15.5225 0 20 4.4775 20 10C20 15.5225 15.5225 20 10 20C4.4775 20 0 15.5225 0 10C0 4.4775 4.4775 0 10 0ZM8.0125 13.3317C8.15833 13.8692 8.1425 14.3717 7.9925 14.825L7.93833 14.975C7.91833 15.0258 7.895 15.075 7.87333 15.1217C7.75667 15.3633 7.60167 15.5883 7.41083 15.7967C6.82917 16.4292 6.0175 16.6692 5.66917 16.4675C5.29417 16.2492 5.48083 15.355 6.15583 14.6425C6.88167 13.8775 7.9225 13.385 7.9225 13.385V13.3825L8.0125 13.3317ZM16.2717 4.28083C15.82 2.50333 12.8742 1.91917 10.0867 2.91C8.42917 3.49917 6.63333 4.425 5.3425 5.6325C3.80667 7.06667 3.5625 8.31667 3.66333 8.83917C4.01917 10.6817 6.54417 11.8867 7.5825 12.7808V12.7858C7.27667 12.9358 5.03583 14.06 4.51083 15.2233C3.94833 16.4483 4.59833 17.3242 5.02333 17.4358C6.33583 17.7992 7.68583 17.1358 8.41083 16.0617C9.11083 15.0108 9.04917 13.6608 8.7475 12.9983C9.16083 12.8858 9.6475 12.8358 10.2725 12.9117C12.0233 13.1117 12.3733 14.2117 12.2975 14.6617C12.2225 15.1108 11.8617 15.3733 11.7358 15.4483C11.6108 15.5242 11.5733 15.5483 11.585 15.5992C11.5975 15.6742 11.6608 15.6742 11.76 15.6617C11.8975 15.6367 12.6733 15.2867 12.7108 14.4358C12.7483 13.3608 11.7225 12.1617 9.89833 12.1858C9.14833 12.1992 8.6725 12.2617 8.33583 12.3992C8.31083 12.3617 8.285 12.3367 8.24833 12.3117C7.12333 11.0992 5.03583 10.2492 5.12333 8.63667C5.14833 8.04917 5.36083 6.5 9.12333 4.625C12.2108 3.08667 14.6742 3.5125 15.0992 4.45C15.71 5.78667 13.7858 8.275 10.5733 8.63667C9.34833 8.77417 8.71083 8.3 8.5475 8.12417C8.37333 7.93667 8.34833 7.92417 8.28583 7.9625C8.18583 8.0125 8.24833 8.175 8.28583 8.275C8.38583 8.525 8.77333 8.9625 9.44917 9.1875C10.0358 9.375 11.4742 9.48667 13.1992 8.8125C15.1358 8.06333 16.6483 5.975 16.2108 4.225L16.2717 4.28083Z" fill="black"/>
</g>
<defs>
<clipPath id="clip0_139_297">
<rect width="20" height="20" fill="white"/>
</clipPath>
</defs>
</svg>
