<svg width="20" height="20" viewBox="0 0 20 20" fill="none" xmlns="http://www.w3.org/2000/svg">
<g clip-path="url(#clip0_139_265)">
<path d="M10 1.04169L15.625 6.57252V1.66669L10 1.04169ZM10 1.04169L4.95833 6.87502H15.0417L10 1.04169ZM10 1.04169L4.375 1.66669V6.57252L10 1.04169ZM4.375 1.66669L0 7.50002L3.68 6.93335L4.375 1.66669ZM0 7.50002L9.96583 18.9192L9.9725 18.9075L3.7025 7.50002H0ZM15.625 1.66669L16.32 6.93335L20 7.50002L15.625 1.66669ZM20 7.50002H16.245L9.97583 18.9084L10 18.9584L20 7.50002ZM10 18.9584L9.97417 18.9109L9.9675 18.9209L10 18.9584ZM4.53 7.50002L9.97417 18.905L15.47 7.50002H4.53Z" fill="black"/>
</g>
<defs>
<clipPath id="clip0_139_265">
<rect width="20" height="20" fill="white"/>
</clipPath>
</defs>
</svg>
