<svg width="20" height="20" viewBox="0 0 20 20" fill="none" xmlns="http://www.w3.org/2000/svg">
<g clip-path="url(#clip0_139_294)">
<path d="M10.001 4C7.33431 4 5.66764 5.33333 5.00098 8C6.00098 6.66667 7.16764 6.16667 8.50098 6.5C9.26181 6.69 9.80514 7.24167 10.4076 7.85333C11.3885 8.84833 12.5226 10 15.001 10C17.6676 10 19.3343 8.66667 20.001 6C19.001 7.33333 17.8343 7.83333 16.501 7.5C15.7401 7.31 15.1968 6.75833 14.5943 6.14667C13.6143 5.15167 12.4801 4 10.001 4ZM5.00098 10C2.33431 10 0.667643 11.3333 0.000976562 14C1.00098 12.6667 2.16764 12.1667 3.50098 12.5C4.26181 12.69 4.80514 13.2417 5.40764 13.8533C6.38848 14.8483 7.52264 16 10.001 16C12.6676 16 14.3343 14.6667 15.001 12C14.001 13.3333 12.8343 13.8333 11.501 13.5C10.7401 13.31 10.1968 12.7583 9.59431 12.1467C8.61431 11.1517 7.48014 10 5.00098 10Z" fill="black"/>
</g>
<defs>
<clipPath id="clip0_139_294">
<rect width="20" height="20" fill="white"/>
</clipPath>
</defs>
</svg>
