<svg width="20" height="20" viewBox="0 0 20 20" fill="none" xmlns="http://www.w3.org/2000/svg">
<path d="M13.8414 0L9.49977 12.0642L7.3381 5.3H4.9506L8.1206 13.4417C8.42692 14.2253 8.42692 15.0955 8.1206 15.8792C7.7981 16.7067 7.22643 17.6775 5.65393 17.9667V20C6.91393 19.95 7.89727 19.5317 8.73227 18.6917C9.59227 17.8283 10.3314 16.4792 11.0573 14.4492L16.4489 0H13.8414ZM4.46393 2.72833C3.64803 2.73075 2.86624 3.05594 2.2893 3.63287C1.71237 4.2098 1.38718 4.9916 1.38477 5.8075V14.4392C1.3874 15.2549 1.71269 16.0365 2.2896 16.6133C2.86651 17.19 3.64817 17.5151 4.46393 17.5175H5.14477L5.36143 17.4892C6.8281 17.2917 7.33643 16.4692 7.63893 15.6908C7.89805 15.0277 7.89805 14.2914 7.63893 13.6283L4.1956 4.78167H7.71643L9.5281 10.4567L12.3106 2.72833H4.46393ZM15.9573 2.795L11.5439 14.625C11.1256 15.7942 10.6981 16.7417 10.2448 17.5167H18.6148V5.80833C18.604 5.07151 18.3302 4.3628 17.8427 3.8102C17.3552 3.2576 16.687 2.89752 15.9573 2.795Z" fill="black"/>
</svg>
